<?xml version="1.0" encoding="utf-8"?>
<!-- Generated by IcoMoon.io -->
<svg version="1.1" xmlns="http://www.w3.org/2000/svg" xmlns:xlink="http://www.w3.org/1999/xlink" width="752" height="32" viewBox="0 0 752 32">
<svg id="icon-check" width="32" height="32" viewBox="0 0 32 32" x="0" y="0">
<path fill="none" stroke-linejoin="round" stroke-linecap="round" stroke-miterlimit="4" stroke-width="3.5556" stroke="#000" d="M26.667 8l-14.667 14.667-6.667-6.667"></path>
</svg>
<svg id="icon-caret-small-left" width="32" height="32" viewBox="0 0 32 32" x="48" y="0">
<path fill="none" stroke-linejoin="round" stroke-linecap="round" stroke-miterlimit="4" stroke-width="2" stroke="#000" d="M18.667 21.333l-5.333-5.333 5.333-5.333"></path>
</svg>
<svg id="icon-caret-small-right" width="32" height="32" viewBox="0 0 32 32" x="96" y="0">
<path fill="none" stroke-linejoin="round" stroke-linecap="round" stroke-miterlimit="4" stroke-width="2" stroke="#000" d="M13.333 10.667l5.333 5.333-5.333 5.333"></path>
</svg>
<svg id="icon-chevron-down" width="32" height="32" viewBox="0 0 32 32" x="144" y="0">
<path fill="none" stroke-linejoin="round" stroke-linecap="round" stroke-miterlimit="4" stroke-width="3.2" stroke="#000" d="M8 12l8 8 8-8"></path>
</svg>
<svg id="icon-discount_leaf" width="32" height="32" viewBox="0 0 32 32" x="192" y="0">
<path d="M22.67 10.667c-12 2.665-14.8 10.891-17.573 17.785l2.519 0.88 1.266-3.065c0.64 0.226 1.307 0.4 1.787 0.4 14.667 0 18.667-22.667 18.667-22.667-1.335 2.667-10.667 3.001-17.335 4.334-6.665 1.333-9.333 6.999-9.333 9.666s2.331 5.001 2.331 5.001c4.336-12.334 17.669-12.334 17.669-12.334z"></path>
</svg>
<svg id="icon-facebook" width="32" height="32" viewBox="0 0 32 32" x="240" y="0">
<path d="M19.52 4.64h0.96v3.6h-1.2c-0.48 0-0.96 0-1.2 0.24s-0.24 0.48-0.24 1.040v1.28h2.64v3.040h-2.64v13.2h-4.080v-13.28h-2.16v-3.040h2.16v-1.040c0-1.76 0.24-3.040 0.72-3.6 0.72-1.040 2.16-1.52 4.32-1.52 0.24 0.080 0.48 0.080 0.72 0.080z"></path>
</svg>
<svg id="icon-heroicons-solid_shopping-cart" width="32" height="32" viewBox="0 0 32 32" x="288" y="0">
<path d="M4.8 1.6c-0.884 0-1.6 0.716-1.6 1.6s0.716 1.6 1.6 1.6h1.952l0.489 1.954 0.016 0.069 2.171 8.686-1.429 1.429c-2.016 2.016-0.587 5.463 2.263 5.463h13.737c0.884 0 1.6-0.716 1.6-1.6s-0.716-1.6-1.6-1.6h-13.737l1.6-1.6h10.537c0.623-0 1.162-0.356 1.427-0.875l0.004-0.009 4.8-9.6c0.106-0.208 0.169-0.455 0.169-0.715 0-0.884-0.716-1.6-1.6-1.6h-17.152l-0.496-1.989c-0.18-0.701-0.806-1.211-1.552-1.211h-3.2zM25.6 26.4c0 1.325-1.075 2.4-2.4 2.4s-2.4-1.075-2.4-2.4v0c0-1.325 1.075-2.4 2.4-2.4s2.4 1.075 2.4 2.4v0zM10.4 28.8c1.325 0 2.4-1.075 2.4-2.4s-1.075-2.4-2.4-2.4v0c-1.325 0-2.4 1.075-2.4 2.4s1.075 2.4 2.4 2.4v0z"></path>
</svg>
<svg id="icon-instagram" width="32" height="32" viewBox="0 0 32 32" x="336" y="0">
<path d="M28.719 10.756c-0.016-1.134-0.233-2.213-0.617-3.209l0.021 0.063c-0.681-1.721-2.020-3.058-3.698-3.721l-0.044-0.015c-0.921-0.356-1.986-0.572-3.098-0.596l-0.010-0c-1.368-0.061-1.801-0.079-5.273-0.079-3.471 0-3.916 0-5.273 0.079-1.122 0.024-2.186 0.24-3.171 0.618l0.064-0.022c-1.723 0.678-3.062 2.015-3.727 3.692l-0.015 0.044c-0.357 0.919-0.574 1.982-0.596 3.092l-0 0.009c-0.061 1.367-0.080 1.8-0.080 5.265 0 3.467 0 3.908 0.080 5.265 0.023 1.121 0.24 2.184 0.618 3.168l-0.022-0.064c0.682 1.721 2.021 3.057 3.7 3.719l0.044 0.015c0.917 0.37 1.98 0.602 3.091 0.64l0.016 0c1.369 0.060 1.803 0.079 5.273 0.079 3.472 0 3.917 0 5.275-0.080 1.122-0.023 2.186-0.239 3.171-0.616l-0.064 0.022c1.723-0.679 3.061-2.015 3.728-3.692l0.016-0.044c0.357-0.92 0.573-1.983 0.596-3.094l0-0.010c0.061-1.365 0.080-1.799 0.080-5.267-0.004-3.464-0.004-3.904-0.083-5.263zM15.991 22.531c-0.002 0-0.005 0-0.008 0-3.624 0-6.562-2.936-6.565-6.56v-0c0.002-3.624 2.941-6.561 6.565-6.561 0.003 0 0.006 0 0.008 0h-0c0.002 0 0.003 0 0.005 0 3.624 0 6.563 2.936 6.567 6.56v0c-0.003 3.624-2.942 6.561-6.567 6.561-0.002 0-0.005 0-0.007 0h0zM22.824 10.696c-0.845 0-1.53-0.685-1.53-1.53s0.685-1.53 1.53-1.53v0c0.845 0 1.53 0.685 1.53 1.53s-0.685 1.53-1.53 1.53v0z"></path>
<path d="M15.991 19.976c2.211 0 4.004-1.793 4.004-4.004s-1.793-4.004-4.004-4.004v0c-2.211 0-4.004 1.793-4.004 4.004s1.793 4.004 4.004 4.004v0z"></path>
</svg>
<svg id="icon-ion_close-sharp" width="32" height="32" viewBox="0 0 32 32" x="384" y="0">
<path d="M25.001 9.094l-2.095-2.095-6.906 6.908-6.906-6.906-2.095 2.093 6.908 6.906-6.906 6.906 2.093 2.095 6.906-6.908 6.906 6.906 2.095-2.093-6.908-6.906 6.906-6.906z"></path>
</svg>
<svg id="icon-tdesign_cabbage" width="32" height="32" viewBox="0 0 32 32" x="432" y="0">
<path d="M17.486 4.624c-0.468-0.704-1.077-1.278-1.79-1.692l-0.026-0.014c-2.012-1.154-4.602-0.952-6.992 0.388-4.44 2.486-7.346 7.16-7.346 12.694 0 7.386 5.346 13.35 12.33 14.48 0.762 0.122 1.542 0.186 2.336 0.186 0.016 0 0.034 0 0.053 0 8.072 0 14.616-6.544 14.616-14.616 0-0.058-0-0.115-0.001-0.173l0 0.009c-0.032-2.576-1.064-5.736-2.698-8.264-1.626-2.516-4.128-4.81-7.236-4.78-1.518 0-2.554 0.836-3.246 1.784v-0.002zM26.36 10.15c-0.302-0.051-0.651-0.080-1.006-0.080-0.239 0-0.475 0.013-0.706 0.039l0.029-0.003-1.546-2.6-2.292 1.36 1.19 2c-0.544 0.259-1.010 0.537-1.447 0.852l0.027-0.018c-0.018-0.064-0.026-0.090-0.035-0.116l0.011 0.038c-0.356-1.080-1.044-1.966-1.96-2.848l0.004-0.026c0.092-0.43 0.24-0.986 0.46-1.526 0.496-1.222 1.074-1.716 1.652-1.716h0.014c1.722-0.020 3.516 1.3 4.976 3.56 0.226 0.352 0.436 0.712 0.632 1.084h-0.002zM18.146 14.146c-0.44 0.012-0.892 0.060-1.334 0.156-0.369-0.61-0.842-1.119-1.401-1.516l-0.015-0.010c-0.696-0.507-1.568-0.811-2.512-0.811-0.555 0-1.086 0.105-1.573 0.297l0.029-0.010c-0.050-0.033-0.192-0.113-0.334-0.191l-0.098-0.049 4.31-4.226-1.866-1.904-5.114 5.012c-1.080-0.314-2.088-0.426-2.996-0.3 1.067-2.112 2.692-3.808 4.682-4.934l0.058-0.030c1.82-1.020 3.384-0.962 4.362-0.4 0.934 0.534 1.708 1.748 1.514 3.916l-0.060 0.67 0.504 0.446c1.096 0.97 1.552 1.596 1.748 2.196 0.14 0.42 0.184 0.928 0.096 1.688zM14.398 15.486c-1.138 0.954-1.902 2.292-2.346 3.736l-3.966-4.352-1.972 1.796 5.452 5.984c-0.008 1.59 0.196 3.216 0.492 4.688-4.729-1.659-8.058-6.085-8.058-11.289 0-0.018 0-0.036 0-0.054v0.003c0-1.384 0.386-2.14 0.84-2.472 0.428-0.314 1.368-0.572 3.292 0.14 0.696 0.256 1.502 0.652 2.424 1.224l0.668 0.416 0.688-0.386c0.832-0.466 1.466-0.3 1.952 0.040 0.214 0.15 0.396 0.336 0.536 0.526zM16.752 27.976l9.722-10.716-1.974-1.792-3.91 4.308 0.010-1.352-2.666-0.020-0.032 4.334-3.31 3.65c-0.227-1.127-0.357-2.422-0.357-3.748 0-0.157 0.002-0.314 0.005-0.471l-0 0.023c0.086-2.34 1.020-4.262 2.402-5.024 0.574-0.316 1.586-0.44 2.386-0.3l1.186 0.208 0.328-1.16c0.17-0.602 0.622-1.25 1.328-1.826 0.686-0.557 1.506-0.979 2.402-1.21l0.044-0.010c1.068-0.262 1.98-0.126 2.58 0.288 0.522 0.36 1.050 1.096 1.1 2.604v0.024l0.002 0.214c0 0.016 0 0.034 0 0.052 0 6.351-4.957 11.544-11.213 11.922l-0.033 0.002z"></path>
</svg>
<svg id="icon-Vector" width="32" height="32" viewBox="0 0 32 32" x="480" y="0">
<path d="M21.834 19.334h-1.318l-0.466-0.45c1.626-1.877 2.616-4.344 2.616-7.041 0-0.003 0-0.006 0-0.009v0.001c0-0.001 0-0.001 0-0.002 0-5.983-4.851-10.834-10.834-10.834s-10.834 4.851-10.834 10.834c0 5.983 4.851 10.834 10.834 10.834 0.001 0 0.001 0 0.002 0h-0c0.003 0 0.006 0 0.009 0 2.698 0 5.164-0.99 7.055-2.628l-0.014 0.012 0.45 0.466v1.318l8.332 8.316 2.484-2.484-8.316-8.332zM11.834 19.334c-0.003 0-0.007 0-0.010 0-4.137 0-7.49-3.353-7.49-7.49 0-0.004 0-0.007 0-0.011v0.001c0-0.003 0-0.007 0-0.010 0-4.137 3.353-7.49 7.49-7.49 0.004 0 0.007 0 0.011 0h-0.001c0.003 0 0.007 0 0.010 0 4.137 0 7.49 3.353 7.49 7.49 0 0.004 0 0.007 0 0.011v-0.001c0 0.003 0 0.007 0 0.010 0 4.137-3.353 7.49-7.49 7.49-0.004 0-0.007 0-0.011 0h0.001z"></path>
</svg>
<svg id="icon-youtube" width="32" height="32" viewBox="0 0 32 32" x="528" y="0">
<path d="M24.24 6c-1.36-0.080-4.16-0.16-8.4-0.16h-0.56c-4.080 0-6.8 0.080-8.16 0.24-1.84 0.16-3.12 0.64-3.84 1.28-0.64 0.56-1.12 1.6-1.28 2.96-0.080 0.88-0.16 2.72-0.16 5.52v0.4c0 2.64 0.080 4.48 0.24 5.36 0.24 1.28 0.64 2.24 1.44 2.8 0.8 0.64 2.16 1.040 4.080 1.2 1.36 0.080 4.16 0.16 8.4 0.16h0.56c4.080 0 6.8-0.080 8.16-0.24 1.84-0.16 3.12-0.64 3.84-1.28 0.64-0.56 1.12-1.6 1.28-2.96 0.080-0.88 0.16-2.72 0.16-5.52v-0.4c0-2.64-0.080-4.48-0.24-5.36-0.24-1.28-0.64-2.24-1.44-2.8-0.8-0.64-2.16-1.040-4.080-1.2zM21.12 15.84l-8.8 5.28v-10.56l8.8 5.28z"></path>
</svg>
</svg>
