<!-- Generated by IcoMoon.io -->
<svg version="1.1" xmlns="http://www.w3.org/2000/svg" width="32" height="32" viewBox="0 0 32 32">
<title>heroicons-solid_shopping-cart</title>
<path d="M4.8 1.6c-0.884 0-1.6 0.716-1.6 1.6s0.716 1.6 1.6 1.6h1.952l0.489 1.954 0.016 0.069 2.171 8.686-1.429 1.429c-2.016 2.016-0.587 5.463 2.263 5.463h13.737c0.884 0 1.6-0.716 1.6-1.6s-0.716-1.6-1.6-1.6h-13.737l1.6-1.6h10.537c0.623-0 1.162-0.356 1.427-0.875l0.004-0.009 4.8-9.6c0.106-0.208 0.169-0.455 0.169-0.715 0-0.884-0.716-1.6-1.6-1.6h-17.152l-0.496-1.989c-0.18-0.701-0.806-1.211-1.552-1.211h-3.2zM25.6 26.4c0 1.325-1.075 2.4-2.4 2.4s-2.4-1.075-2.4-2.4v0c0-1.325 1.075-2.4 2.4-2.4s2.4 1.075 2.4 2.4v0zM10.4 28.8c1.325 0 2.4-1.075 2.4-2.4s-1.075-2.4-2.4-2.4v0c-1.325 0-2.4 1.075-2.4 2.4s1.075 2.4 2.4 2.4v0z"></path>
</svg>
