<!-- Generated by IcoMoon.io -->
<svg version="1.1" xmlns="http://www.w3.org/2000/svg" width="32" height="32" viewBox="0 0 32 32">
<title>instagram</title>
<path d="M28.719 10.756c-0.016-1.134-0.233-2.213-0.617-3.209l0.021 0.063c-0.681-1.721-2.020-3.058-3.698-3.721l-0.044-0.015c-0.921-0.356-1.986-0.572-3.098-0.596l-0.010-0c-1.368-0.061-1.801-0.079-5.273-0.079-3.471 0-3.916 0-5.273 0.079-1.122 0.024-2.186 0.24-3.171 0.618l0.064-0.022c-1.723 0.678-3.062 2.015-3.727 3.692l-0.015 0.044c-0.357 0.919-0.574 1.982-0.596 3.092l-0 0.009c-0.061 1.367-0.080 1.8-0.080 5.265 0 3.467 0 3.908 0.080 5.265 0.023 1.121 0.24 2.184 0.618 3.168l-0.022-0.064c0.682 1.721 2.021 3.057 3.7 3.719l0.044 0.015c0.917 0.37 1.98 0.602 3.091 0.64l0.016 0c1.369 0.060 1.803 0.079 5.273 0.079 3.472 0 3.917 0 5.275-0.080 1.122-0.023 2.186-0.239 3.171-0.616l-0.064 0.022c1.723-0.679 3.061-2.015 3.728-3.692l0.016-0.044c0.357-0.92 0.573-1.983 0.596-3.094l0-0.010c0.061-1.365 0.080-1.799 0.080-5.267-0.004-3.464-0.004-3.904-0.083-5.263zM15.991 22.531c-0.002 0-0.005 0-0.008 0-3.624 0-6.562-2.936-6.565-6.56v-0c0.002-3.624 2.941-6.561 6.565-6.561 0.003 0 0.006 0 0.008 0h-0c0.002 0 0.003 0 0.005 0 3.624 0 6.563 2.936 6.567 6.56v0c-0.003 3.624-2.942 6.561-6.567 6.561-0.002 0-0.005 0-0.007 0h0zM22.824 10.696c-0.845 0-1.53-0.685-1.53-1.53s0.685-1.53 1.53-1.53v0c0.845 0 1.53 0.685 1.53 1.53s-0.685 1.53-1.53 1.53v0z"></path>
<path d="M15.991 19.976c2.211 0 4.004-1.793 4.004-4.004s-1.793-4.004-4.004-4.004v0c-2.211 0-4.004 1.793-4.004 4.004s1.793 4.004 4.004 4.004v0z"></path>
</svg>
