<!-- Generated by IcoMoon.io -->
<svg version="1.1" xmlns="http://www.w3.org/2000/svg" width="32" height="32" viewBox="0 0 32 32">
<title>tdesign_cabbage</title>
<path d="M17.486 4.624c-0.468-0.704-1.077-1.278-1.79-1.692l-0.026-0.014c-2.012-1.154-4.602-0.952-6.992 0.388-4.44 2.486-7.346 7.16-7.346 12.694 0 7.386 5.346 13.35 12.33 14.48 0.762 0.122 1.542 0.186 2.336 0.186 0.016 0 0.034 0 0.053 0 8.072 0 14.616-6.544 14.616-14.616 0-0.058-0-0.115-0.001-0.173l0 0.009c-0.032-2.576-1.064-5.736-2.698-8.264-1.626-2.516-4.128-4.81-7.236-4.78-1.518 0-2.554 0.836-3.246 1.784v-0.002zM26.36 10.15c-0.302-0.051-0.651-0.080-1.006-0.080-0.239 0-0.475 0.013-0.706 0.039l0.029-0.003-1.546-2.6-2.292 1.36 1.19 2c-0.544 0.259-1.010 0.537-1.447 0.852l0.027-0.018c-0.018-0.064-0.026-0.090-0.035-0.116l0.011 0.038c-0.356-1.080-1.044-1.966-1.96-2.848l0.004-0.026c0.092-0.43 0.24-0.986 0.46-1.526 0.496-1.222 1.074-1.716 1.652-1.716h0.014c1.722-0.020 3.516 1.3 4.976 3.56 0.226 0.352 0.436 0.712 0.632 1.084h-0.002zM18.146 14.146c-0.44 0.012-0.892 0.060-1.334 0.156-0.369-0.61-0.842-1.119-1.401-1.516l-0.015-0.010c-0.696-0.507-1.568-0.811-2.512-0.811-0.555 0-1.086 0.105-1.573 0.297l0.029-0.010c-0.050-0.033-0.192-0.113-0.334-0.191l-0.098-0.049 4.31-4.226-1.866-1.904-5.114 5.012c-1.080-0.314-2.088-0.426-2.996-0.3 1.067-2.112 2.692-3.808 4.682-4.934l0.058-0.030c1.82-1.020 3.384-0.962 4.362-0.4 0.934 0.534 1.708 1.748 1.514 3.916l-0.060 0.67 0.504 0.446c1.096 0.97 1.552 1.596 1.748 2.196 0.14 0.42 0.184 0.928 0.096 1.688zM14.398 15.486c-1.138 0.954-1.902 2.292-2.346 3.736l-3.966-4.352-1.972 1.796 5.452 5.984c-0.008 1.59 0.196 3.216 0.492 4.688-4.729-1.659-8.058-6.085-8.058-11.289 0-0.018 0-0.036 0-0.054v0.003c0-1.384 0.386-2.14 0.84-2.472 0.428-0.314 1.368-0.572 3.292 0.14 0.696 0.256 1.502 0.652 2.424 1.224l0.668 0.416 0.688-0.386c0.832-0.466 1.466-0.3 1.952 0.040 0.214 0.15 0.396 0.336 0.536 0.526zM16.752 27.976l9.722-10.716-1.974-1.792-3.91 4.308 0.010-1.352-2.666-0.020-0.032 4.334-3.31 3.65c-0.227-1.127-0.357-2.422-0.357-3.748 0-0.157 0.002-0.314 0.005-0.471l-0 0.023c0.086-2.34 1.020-4.262 2.402-5.024 0.574-0.316 1.586-0.44 2.386-0.3l1.186 0.208 0.328-1.16c0.17-0.602 0.622-1.25 1.328-1.826 0.686-0.557 1.506-0.979 2.402-1.21l0.044-0.010c1.068-0.262 1.98-0.126 2.58 0.288 0.522 0.36 1.050 1.096 1.1 2.604v0.024l0.002 0.214c0 0.016 0 0.034 0 0.052 0 6.351-4.957 11.544-11.213 11.922l-0.033 0.002z"></path>
</svg>
