<!-- Generated by IcoMoon.io -->
<svg version="1.1" xmlns="http://www.w3.org/2000/svg" width="32" height="32" viewBox="0 0 32 32">
<title>Vector</title>
<path d="M21.834 19.334h-1.318l-0.466-0.45c1.626-1.877 2.616-4.344 2.616-7.041 0-0.003 0-0.006 0-0.009v0.001c0-0.001 0-0.001 0-0.002 0-5.983-4.851-10.834-10.834-10.834s-10.834 4.851-10.834 10.834c0 5.983 4.851 10.834 10.834 10.834 0.001 0 0.001 0 0.002 0h-0c0.003 0 0.006 0 0.009 0 2.698 0 5.164-0.99 7.055-2.628l-0.014 0.012 0.45 0.466v1.318l8.332 8.316 2.484-2.484-8.316-8.332zM11.834 19.334c-0.003 0-0.007 0-0.010 0-4.137 0-7.49-3.353-7.49-7.49 0-0.004 0-0.007 0-0.011v0.001c0-0.003 0-0.007 0-0.010 0-4.137 3.353-7.49 7.49-7.49 0.004 0 0.007 0 0.011 0h-0.001c0.003 0 0.007 0 0.010 0 4.137 0 7.49 3.353 7.49 7.49 0 0.004 0 0.007 0 0.011v-0.001c0 0.003 0 0.007 0 0.010 0 4.137-3.353 7.49-7.49 7.49-0.004 0-0.007 0-0.011 0h0.001z"></path>
</svg>
